<?xml version="1.0" ?><svg width="32.406px" height="32.406px" viewBox="-5.03 0 32.406 32.406" xmlns="http://www.w3.org/2000/svg"><g transform="translate(-485.873 -578.31)"><path d="M506.079,610.716h-18.06a2.149,2.149,0,0,1-2.146-2.147V580.478a2.152,2.152,0,0,1,2.141-2.146l11.523-.021,8.688,8.707v21.551A2.149,2.149,0,0,1,506.079,610.716Zm-7.37-30.4-10.69.019a.147.147,0,0,0-.146.146v28.091a.146.146,0,0,0,.146.147h18.06a.146.146,0,0,0,.146-.147V587.846Z"/><path d="M507.225,588.432h-.013l-7.176-.09a2.033,2.033,0,0,1-2-2.055l.091-6.987a.978.978,0,0,1,1.012-.988,1,1,0,0,1,.988,1.013l-.091,6.986,7.206.121a1,1,0,0,1-.013,2Z"/></g></svg>