<?xml version="1.0" ?><svg width="31.66px" height="31.66px" viewBox="0 -0.25 31.66 31.66" xmlns="http://www.w3.org/2000/svg"><g transform="translate(-225.402 -450.693)"><path d="M231.992,460.628v19.234H227.4V460.628h4.59m1.1-2h-6.78a.9.9,0,0,0-.905.9v21.424a.9.9,0,0,0,.905.9h6.78a.9.9,0,0,0,.9-.9V459.533a.9.9,0,0,0-.9-.9Z"/><path d="M243.5,452.693v27.169h-4.344V452.693H243.5m1.1-2h-6.534a.9.9,0,0,0-.905.9v29.359a.9.9,0,0,0,.905.9h6.534a.9.9,0,0,0,.9-.9V451.6a.9.9,0,0,0-.9-.9Z"/><path d="M255.062,464.351v15.511H250.84V464.351h4.222m1.1-2h-6.412a.9.9,0,0,0-.9.9v17.7a.9.9,0,0,0,.9.9h6.412a.9.9,0,0,0,.9-.9v-17.7a.9.9,0,0,0-.9-.9Z"/></g></svg>